<svg width="18" height="18" viewBox="0 0 18 18" fill="none" xmlns="http://www.w3.org/2000/svg">
<path d="M7.38763 16.9916C3.56813 16.6431 0.687851 14.9003 0.687851 12.9376C0.687851 12.4788 0.843443 12.0251 1.15033 11.5891C1.26358 11.4282 1.2318 11.2009 1.07931 11.0813C0.926811 10.9619 0.71141 10.9954 0.598121 11.1563C0.201231 11.7202 0 12.3195 0 12.9376C0 14.134 0.775037 15.2755 2.18238 16.1518C3.50935 16.978 5.33694 17.5331 7.3284 17.7148C7.33848 17.7157 7.34849 17.7162 7.35843 17.7162C7.53496 17.7162 7.68519 17.5735 7.7007 17.3844C7.717 17.1848 7.57689 17.0089 7.38763 16.9916Z" fill="#9FC460"/>
<path d="M8.89089 17.0557L8.87039 17.0557C8.68044 17.0568 8.52729 17.2202 8.52833 17.4206C8.52936 17.6204 8.68313 17.7816 8.87222 17.7816C8.87284 17.7816 8.87349 17.7816 8.87411 17.7816L8.89086 17.7815C9.08081 17.7815 9.23478 17.619 9.23478 17.4186C9.23478 17.2182 9.08084 17.0557 8.89089 17.0557Z" fill="#9FC460"/>
<path d="M17.1512 11.3698C17.3358 11.3633 17.4835 11.2037 17.4835 11.0075C17.4835 10.8071 17.3296 10.6445 17.1396 10.6445H16.4468C16.2568 10.6445 16.1028 10.8071 16.1028 11.0075V11.7386C16.1028 11.939 16.2568 12.1015 16.4468 12.1015C16.5448 12.1015 16.6331 12.058 16.6957 11.9886C16.846 12.2998 16.922 12.6179 16.922 12.938C16.922 14.9011 14.041 16.644 10.2206 16.9922C10.0314 17.0094 9.89121 17.1853 9.90754 17.385C9.92302 17.574 10.0732 17.7167 10.2498 17.7167C10.2597 17.7167 10.2697 17.7162 10.2798 17.7153C12.2717 17.5338 14.0996 16.9788 15.4269 16.1525C16.8346 15.2761 17.6098 14.1345 17.6098 12.938C17.6099 12.398 17.4556 11.871 17.1512 11.3698Z" fill="#9FC460"/>
<path d="M8.80389 3.61133C8.61394 3.61133 8.45996 3.77385 8.45996 3.97426V4.76648C8.45996 4.96689 8.61394 5.12941 8.80389 5.12941C8.99384 5.12941 9.14781 4.96689 9.14781 4.76648V3.97426C9.14781 3.77385 8.99384 3.61133 8.80389 3.61133Z" fill="#9FC460"/>
<path d="M14.7239 4.20316L8.97732 0.701963C8.87091 0.637106 8.7398 0.637106 8.63339 0.701963L2.88681 4.20316C2.7804 4.26798 2.71484 4.38782 2.71484 4.51746V11.5198C2.71484 11.6495 2.78036 11.7693 2.88681 11.8341L8.63339 15.3353C8.6866 15.3678 8.74596 15.3839 8.80535 15.3839C8.86475 15.3839 8.92411 15.3678 8.97732 15.3353L14.7239 11.8341C14.8303 11.7693 14.8959 11.6495 14.8959 11.5198V4.51746C14.8959 4.38782 14.8303 4.26798 14.7239 4.20316ZM8.46143 14.3924L3.74662 11.5198L4.07187 11.3217C4.23637 11.2214 4.29274 10.9995 4.19775 10.8259C4.10279 10.6523 3.89245 10.5928 3.72795 10.6931L3.40266 10.8912V5.14632L8.11468 8.02036L7.52409 8.38018C7.35959 8.48042 7.30322 8.70235 7.39822 8.87595C7.46191 8.99238 7.57751 9.05749 7.69637 9.05749C7.7547 9.05749 7.81385 9.04177 7.86802 9.00878L8.46143 8.64726V14.3924ZM8.80535 6.32049C8.6154 6.32049 8.46143 6.48301 8.46143 6.68342V7.39343L3.74645 4.51757L8.46143 1.6449V2.05774C8.46143 2.25815 8.6154 2.42068 8.80535 2.42068C8.9953 2.42068 9.14928 2.25815 9.14928 2.05774V1.6449L13.8643 4.51757L9.14928 7.39343V6.68342C9.14928 6.48301 8.9953 6.32049 8.80535 6.32049ZM14.208 10.8912L13.8827 10.6931C13.7182 10.5929 13.5079 10.6523 13.4129 10.8259C13.3179 10.9995 13.3743 11.2214 13.5388 11.3217L13.8641 11.5198L9.14928 14.3924V8.64726L9.74269 9.00878C9.79686 9.04177 9.85598 9.05749 9.91434 9.05749C10.0332 9.05749 10.1488 8.99238 10.2125 8.87595C10.3075 8.70235 10.2511 8.48042 10.0866 8.38018L9.49603 8.02036L14.208 5.14632V10.8912Z" fill="#9FC460"/>
<path d="M12.3097 9.73482L11.6595 9.33871C11.495 9.23851 11.2847 9.29799 11.1897 9.47155C11.0947 9.64514 11.1511 9.86711 11.3156 9.96731L11.9657 10.3634C12.0199 10.3964 12.079 10.4121 12.1374 10.4121C12.2562 10.4121 12.3718 10.347 12.4355 10.2306C12.5305 10.057 12.4742 9.83506 12.3097 9.73482Z" fill="#9FC460"/>
<path d="M6.41991 9.47157C6.32492 9.29798 6.11461 9.23849 5.95011 9.33874L5.29995 9.73484C5.13545 9.83509 5.07908 10.057 5.17408 10.2306C5.23777 10.347 5.35336 10.4122 5.47223 10.4122C5.53056 10.4122 5.58971 10.3964 5.64388 10.3634L6.29404 9.96734C6.45854 9.8671 6.5149 9.64516 6.41991 9.47157Z" fill="#9FC460"/>
</svg>
