<svg width="31" height="31" viewBox="0 0 31 31" fill="none" xmlns="http://www.w3.org/2000/svg">
<path d="M19.8589 3.95117H18.0425V7.09961H19.8589V3.95117Z" fill="#E3CEA3"/>
<path d="M23.4922 3.95117H21.6758V7.09961H23.4922V3.95117Z" fill="#E3CEA3"/>
<path d="M16.2261 3.95117H14.4097V7.09961H16.2261V3.95117Z" fill="#E3CEA3"/>
<path d="M19.8589 8.91602H18.0425V12.0645H19.8589V8.91602Z" fill="#E3CEA3"/>
<path d="M23.4922 8.91602H21.6758V12.0645H23.4922V8.91602Z" fill="#E3CEA3"/>
<path d="M16.2261 8.91602H14.4097V12.0645H16.2261V8.91602Z" fill="#E3CEA3"/>
<path d="M9.14209 10.208H7.32568V12.794H9.14209V10.208Z" fill="#E3CEA3"/>
<path d="M9.14209 14.6104H7.32568V17.1963H9.14209V14.6104Z" fill="#E3CEA3"/>
<path d="M9.14209 19.0127H7.32568V21.5987H9.14209V19.0127Z" fill="#E3CEA3"/>
<path d="M9.14209 23.415H7.32568V26.001H9.14209V23.415Z" fill="#E3CEA3"/>
<path d="M19.8589 13.8809H18.0425V17.0293H19.8589V13.8809Z" fill="#E3CEA3"/>
<path d="M23.4922 13.8809H21.6758V17.0293H23.4922V13.8809Z" fill="#E3CEA3"/>
<path d="M16.2261 13.8809H14.4097V17.0293H16.2261V13.8809Z" fill="#E3CEA3"/>
<path d="M19.8589 18.8457H18.0425V21.9941H19.8589V18.8457Z" fill="#E3CEA3"/>
<path d="M23.4922 18.8457H21.6758V21.9941H23.4922V18.8457Z" fill="#E3CEA3"/>
<path d="M16.2261 18.8457H14.4097V21.9941H16.2261V18.8457Z" fill="#E3CEA3"/>
<path d="M23.4922 23.8105H21.6758V26.959H23.4922V23.8105Z" fill="#E3CEA3"/>
<path d="M16.2261 23.8105H14.4097V26.959H16.2261V23.8105Z" fill="#E3CEA3"/>
<path d="M27.1252 29.1686V0.0146484H10.7767V6.52653H3.87476V29.1685H0V30.9849H31V29.1685H27.1252V29.1686ZM25.3088 1.83105V29.1686H19.8591V23.8102H18.0427V29.1686H12.5931V1.83105H25.3088ZM5.69116 8.34293H10.7767V29.1685H5.69116V8.34293Z" fill="#E3CEA3"/>
</svg>
