<svg width="50" height="50" viewBox="0 0 50 50" fill="none" xmlns="http://www.w3.org/2000/svg">
<g clip-path="url(#clip0)">
<path d="M18.2074 23.3891C17.7922 24.5838 17.3776 25.7792 16.9623 26.9739C16.7433 27.6054 17.7438 27.877 17.9614 27.2496C18.3767 26.0549 18.7913 24.8595 19.2066 23.6648C19.4263 23.0333 18.4251 22.7617 18.2074 23.3891Z" fill="#E3CEA3"/>
<path d="M15.5432 37.3408C17.5035 37.4202 18.9711 35.9319 19.1895 34.0787C19.2081 33.9999 19.2199 33.9163 19.215 33.8216C19.222 33.6924 19.2026 33.5791 19.1667 33.4803C18.9207 31.7238 17.5609 30.2949 15.6883 30.2949C13.7723 30.2949 12.1616 31.907 12.1616 33.8216C12.1609 35.6859 13.6838 37.2654 15.5432 37.3408ZM17.4876 33.8216C17.3632 36.1274 13.889 36.1468 13.889 33.8216C13.8884 31.4944 17.3632 31.5152 17.4876 33.8216Z" fill="#E3CEA3"/>
<path d="M34.155 37.3408C36.1153 37.4202 37.583 35.9319 37.8013 34.0787C37.82 33.9999 37.8317 33.9163 37.8269 33.8216C37.8338 33.6924 37.8144 33.5791 37.7785 33.4803C37.5325 31.7238 36.1727 30.2949 34.3002 30.2949C32.3841 30.2949 30.7734 31.907 30.7734 33.8216C30.7734 35.6859 32.2956 37.2654 34.155 37.3408ZM36.0994 33.8216C35.9751 36.1274 32.5009 36.1468 32.5009 33.8216C32.5009 31.4944 35.9758 31.5152 36.0994 33.8216Z" fill="#E3CEA3"/>
<path d="M49.5888 21.7631C42.7364 17.6048 35.8847 13.4466 29.0324 9.28832C28.139 8.74591 27.2013 8.02385 26.1732 7.76128C24.4941 7.33218 23.1591 7.95751 21.7959 8.78529C18.0052 11.0855 14.2152 13.3858 10.4246 15.686C7.08648 17.7119 3.7484 19.7379 0.410323 21.7631C-0.53907 22.3394 0.328097 23.8333 1.28233 23.2549C7.95434 19.2058 14.6263 15.1574 21.2977 11.1083C22.066 10.6419 22.8392 10.0518 23.658 9.67596C25.3592 8.89447 26.4855 9.76371 27.8336 10.5818C31.6512 12.8986 35.4688 15.2155 39.2871 17.5323C42.4303 19.4401 45.5735 21.3471 48.7174 23.2549C49.6696 23.8333 50.5388 22.3401 49.5888 21.7631Z" fill="#E3CEA3"/>
<path d="M45.3963 42.3173C43.3179 42.3173 41.2395 42.3173 39.161 42.3173C39.2467 42.2102 39.3269 42.0982 39.3925 41.9759C39.7705 41.2718 39.6502 40.395 39.6461 39.6204C40.7689 39.2079 41.5767 38.1369 41.5767 36.8724V30.7705C41.5767 29.468 40.7185 28.3735 39.5418 27.99L36.4434 19.8566C35.9107 18.4594 34.3222 17.3643 32.8262 17.3643H17.1723C15.6763 17.3643 14.0871 18.4588 13.5544 19.8566L10.4567 27.99C9.28002 28.3735 8.42183 29.4673 8.42183 30.7705V36.8724C8.42183 38.1645 9.26551 39.2514 10.4263 39.6432C10.4194 40.4123 10.3061 41.2787 10.6806 41.9759C10.7463 42.0982 10.8264 42.2102 10.9121 42.3173C10.6509 42.3173 10.389 42.3173 10.1278 42.3173C8.46537 42.3173 6.8022 42.3173 5.13903 42.3173C4.02726 42.3173 4.02588 44.0447 5.13903 44.0447C16.8952 44.0447 28.6514 44.0447 40.4075 44.0447C42.07 44.0447 43.7332 44.0447 45.3963 44.0447C46.5074 44.0447 46.5095 42.3173 45.3963 42.3173ZM36.6148 39.809H37.9277C37.9698 40.4675 38.1115 41.4936 37.2712 41.4936C36.4324 41.4936 36.5727 40.4662 36.6148 39.809ZM15.1685 20.4716C15.449 19.7364 16.386 19.091 17.1723 19.091H32.8262C33.6132 19.091 34.5495 19.7364 34.8293 20.4716L37.634 27.8331H36.1152L34.2579 22.4636C33.7652 21.0388 32.1988 19.9229 30.6911 19.9229H19.3081C17.8004 19.9229 16.2333 21.0381 15.7392 22.4615L13.8736 27.8331H12.3645L15.1685 20.4716ZM34.2869 27.8331H15.7019L17.3706 23.0281C17.6256 22.2943 18.5307 21.6503 19.3081 21.6503H30.6911C31.4678 21.6503 32.3716 22.2943 32.6251 23.0281L34.2869 27.8331ZM10.1493 30.7698C10.1493 30.103 10.6917 29.5606 11.3585 29.5606H38.64C39.3068 29.5606 39.8492 30.103 39.8492 30.7698V36.8717C39.8492 37.5385 39.3068 38.0809 38.64 38.0809H11.3585C10.6917 38.0809 10.1493 37.5385 10.1493 36.8717V30.7698ZM12.8019 41.4936C11.9631 41.4936 12.1033 40.4669 12.1455 39.809H13.4583C13.5012 40.4675 13.6421 41.4936 12.8019 41.4936ZM14.9232 41.9759C15.2707 41.3278 15.1975 40.5346 15.1802 39.809H34.8936C34.8763 40.5353 34.8024 41.3285 35.1506 41.9759C35.2163 42.0982 35.2964 42.2102 35.3821 42.3173C28.4855 42.3173 21.589 42.3173 14.6924 42.3173C14.7774 42.2102 14.8575 42.0982 14.9232 41.9759Z" fill="#E3CEA3"/>
</g>
<defs>
<clipPath id="clip0">
<rect width="50" height="50" fill="white"/>
</clipPath>
</defs>
</svg>
