<svg width="40" height="40" viewBox="0 0 40 40" fill="none" xmlns="http://www.w3.org/2000/svg">
<g clip-path="url(#clip0)">
<path d="M34.523 26.6342C34.3769 26.4888 34.1762 26.4053 33.9699 26.4053C33.7645 26.4053 33.5637 26.4888 33.4176 26.6342C33.2723 26.7795 33.1895 26.981 33.1895 27.1865C33.1895 27.392 33.2723 27.5936 33.4176 27.7388C33.5637 27.8841 33.7645 27.9678 33.9699 27.9678C34.1762 27.9678 34.3769 27.8842 34.523 27.7388C34.6684 27.5936 34.7512 27.392 34.7512 27.1865C34.7512 26.981 34.6684 26.7795 34.523 26.6342Z" fill="#E3CEA3"/>
<path d="M15.1298 13.2812H11.3799C10.9484 13.2812 10.5986 13.6311 10.5986 14.0625V18.4373C10.5986 18.8688 10.9484 19.2186 11.3799 19.2186H15.1298C15.5613 19.2186 15.9111 18.8688 15.9111 18.4373V14.0624C15.9111 13.631 15.5613 13.2812 15.1298 13.2812ZM14.3486 17.6562H12.1611V14.8438H14.3486V17.6562Z" fill="#E3CEA3"/>
<path d="M21.9257 13.2812H18.1758C17.7443 13.2812 17.3945 13.6311 17.3945 14.0625V18.4373C17.3945 18.8688 17.7443 19.2186 18.1758 19.2186H21.9257C22.3572 19.2186 22.707 18.8688 22.707 18.4373V14.0624C22.707 13.631 22.3572 13.2812 21.9257 13.2812ZM21.1445 17.6562H18.957V14.8438H21.1445V17.6562Z" fill="#E3CEA3"/>
<path d="M28.7221 13.2812H24.9722C24.5407 13.2812 24.1909 13.6311 24.1909 14.0625V18.4373C24.1909 18.8688 24.5407 19.2186 24.9722 19.2186H28.7221C29.1536 19.2186 29.5033 18.8688 29.5033 18.4373V14.0624C29.5033 13.631 29.1536 13.2812 28.7221 13.2812ZM27.9408 17.6562H25.7534V14.8438H27.9408V17.6562Z" fill="#E3CEA3"/>
<path d="M15.1298 21.5625H11.3799C10.9484 21.5625 10.5986 21.9123 10.5986 22.3438V26.7187C10.5986 27.1501 10.9484 27.4999 11.3799 27.4999H15.1298C15.5613 27.4999 15.9111 27.1501 15.9111 26.7187V22.3438C15.9111 21.9123 15.5613 21.5625 15.1298 21.5625ZM14.3486 25.9374H12.1611V23.125H14.3486V25.9374Z" fill="#E3CEA3"/>
<path d="M21.9257 21.5625H18.1758C17.7443 21.5625 17.3945 21.9123 17.3945 22.3438V26.7187C17.3945 27.1501 17.7443 27.4999 18.1758 27.4999H21.9257C22.3572 27.4999 22.707 27.1501 22.707 26.7187V22.3438C22.707 21.9123 22.3572 21.5625 21.9257 21.5625ZM21.1445 25.9374H18.957V23.125H21.1445V25.9374Z" fill="#E3CEA3"/>
<path d="M1.33408 31.0346C1.18877 30.8893 0.987207 30.8057 0.781738 30.8057C0.575488 30.8057 0.374707 30.8893 0.229395 31.0346C0.084082 31.1799 0.000488281 31.3814 0.000488281 31.5869C0.000488281 31.7925 0.084082 31.994 0.229395 32.1393C0.374707 32.2846 0.576191 32.3682 0.781738 32.3682C0.987207 32.3682 1.18877 32.2846 1.33408 32.1393C1.47939 31.994 1.56299 31.7925 1.56299 31.5869C1.56299 31.3814 1.47939 31.1798 1.33408 31.0346Z" fill="#E3CEA3"/>
<path d="M39.2182 14.2975H38.7825L38.5599 12.9997L39.6469 11.9402C39.9671 11.628 40.0802 11.17 39.942 10.7446C39.8038 10.3193 39.4431 10.0151 39.0004 9.95074L37.4983 9.73254L36.8265 8.37137C36.6286 7.97035 36.2279 7.72129 35.7807 7.72129C35.3335 7.72129 34.9327 7.97035 34.7348 8.37137L34.063 9.73254L32.5608 9.95082C32.4856 9.96175 32.4129 9.98011 32.3432 10.0043V9.84433C32.3432 9.41293 31.9934 9.06308 31.5619 9.06308H31.1262L30.9036 7.76527L31.9907 6.70574C32.3109 6.39355 32.4239 5.93551 32.2857 5.51019C32.1475 5.08488 31.7868 4.78066 31.3442 4.71629L29.8421 4.49808L29.1703 3.13691C28.9724 2.7359 28.5716 2.48684 28.1244 2.48684C27.6772 2.48684 27.2764 2.7359 27.0786 3.13691L26.4068 4.49808L24.9046 4.71637C24.8925 4.71808 24.8807 4.72074 24.8688 4.72285C25.0907 4.40363 25.154 3.9991 25.0304 3.61863C24.8813 3.15973 24.4921 2.83152 24.0145 2.76199L22.0554 2.47738L21.1796 0.702461C20.9661 0.269726 20.5336 0.000976562 20.0511 0.000976562C19.5686 0.000976562 19.1361 0.269726 18.9225 0.702461L18.0464 2.47777L16.0872 2.76246C15.6097 2.83191 15.2204 3.16012 15.0714 3.61902C14.945 4.00824 15.0142 4.42254 15.2487 4.74504C15.2046 4.73332 15.1597 4.7234 15.1136 4.71668L13.6115 4.49848L12.9397 3.1373C12.7418 2.73629 12.3411 2.48723 11.8939 2.48723C11.4467 2.48723 11.0459 2.73629 10.848 3.1373L10.1762 4.49848L8.67403 4.71676C8.23145 4.78105 7.87074 5.08527 7.73262 5.51058C7.59442 5.93582 7.70754 6.39394 8.02778 6.70613L9.11473 7.76566L8.89215 9.06347H8.43754C8.00606 9.06347 7.65629 9.41332 7.65629 9.84472V10.0046C7.58645 9.98043 7.51379 9.96199 7.43848 9.95105L5.93637 9.73285L5.26457 8.37168C5.06668 7.97066 4.6659 7.7216 4.21871 7.7216C3.77153 7.7216 3.37074 7.97066 3.17285 8.37168L2.50106 9.73285L0.99887 9.95113C0.556292 10.0154 0.195588 10.3196 0.0574634 10.745C-0.0807398 11.1702 0.0323852 11.6283 0.35262 11.9405L1.43957 13L1.21699 14.2978H0.781292C0.349807 14.2978 4.14785e-05 14.6477 4.14785e-05 15.0791V28.2038C4.14785e-05 28.6352 0.349807 28.985 0.781292 28.985C1.21278 28.985 1.56254 28.6352 1.56254 28.2038V15.86H7.65614V31.9176C6.21645 32.1144 4.96129 32.9839 4.26957 34.2524C3.98871 34.1787 3.69824 34.1407 3.40606 34.1407C1.53223 34.1407 0.00769773 35.6653 0.00769773 37.5391C0.00769773 38.3356 0.28926 39.1102 0.800666 39.7205C0.949104 39.8977 1.16832 40 1.39949 40H39.2179C39.6494 40 39.9992 39.6501 39.9992 39.2187V15.0787C39.9995 14.6472 39.6497 14.2975 39.2182 14.2975ZM34.494 11.2488C34.874 11.1936 35.2023 10.955 35.3722 10.6108L35.7808 9.78277L36.1894 10.6107C36.3593 10.955 36.6875 11.1936 37.0676 11.2489L37.9814 11.3816L37.3204 12.0261C37.0454 12.2939 36.92 12.6799 36.9848 13.0585L37.1409 13.9686L36.3236 13.5388C36.1536 13.4494 35.9673 13.4048 35.7809 13.4048C35.5945 13.4048 35.4081 13.4495 35.2382 13.5388L34.4209 13.9686L34.5771 13.0583C34.6419 12.6799 34.5164 12.2939 34.2416 12.0261L33.5804 11.3816L34.494 11.2488ZM33.0018 12.9997L32.7792 14.2975H32.3435V12.3582L33.0018 12.9997ZM26.838 6.01457C27.218 5.95933 27.5463 5.72074 27.7161 5.3766L28.1248 4.54855L28.5334 5.37644C28.7032 5.72074 29.0315 5.95933 29.4116 6.01465L30.3254 6.14738L29.6643 6.79183C29.3893 7.05972 29.2639 7.44566 29.3288 7.82426L29.4849 8.73433L28.6675 8.30457C28.4976 8.21519 28.3113 8.17058 28.1249 8.17058C27.9385 8.17058 27.7521 8.21527 27.5821 8.30457L26.7649 8.73433L26.9211 7.8241C26.9859 7.44566 26.8604 7.05972 26.5856 6.79191L25.9243 6.14738L26.838 6.01457ZM23.9224 5.6791C23.8589 6.0534 23.9805 6.43473 24.2588 6.70598L25.3457 7.76551L25.1232 9.06332H23.4915C23.6271 8.81847 23.6791 8.53113 23.6295 8.24207L23.2948 6.2909L23.9224 5.6791ZM18.4293 4.00105C18.8392 3.94144 19.1934 3.6841 19.3768 3.31254L20.0511 1.94629L20.7254 3.31254C20.9088 3.68402 21.263 3.94144 21.673 4.00105L23.1807 4.22012L22.0898 5.28355C21.7931 5.57269 21.6578 5.9891 21.7278 6.39754L21.9854 7.89918L20.6368 7.19019C20.2701 6.99746 19.8322 6.99738 19.4655 7.19019L18.1169 7.89918L18.3745 6.39746C18.4445 5.9891 18.3092 5.57262 18.0125 5.28355L16.9215 4.22012L18.4293 4.00105ZM20.8421 9.06324H19.2602L20.0511 8.64746L20.8421 9.06324ZM15.7601 6.70598C16.064 6.40973 16.1809 5.98207 16.0739 5.57574L16.8075 6.29082L16.4729 8.24207C16.4232 8.53113 16.4752 8.81847 16.6108 9.06332H14.8957L14.6732 7.76551L15.7601 6.70598ZM10.6073 6.01457C10.9873 5.95933 11.3156 5.72074 11.4854 5.3766L11.8941 4.54855L12.3027 5.37644C12.4725 5.72074 12.8008 5.95933 13.1809 6.01465L14.0947 6.14738L13.4336 6.79183C13.1586 7.05972 13.0332 7.44566 13.0981 7.82426L13.2542 8.73433L12.4369 8.30465C12.267 8.21519 12.0806 8.17058 11.8942 8.17058C11.7078 8.17058 11.5214 8.21519 11.3514 8.30457L10.5341 8.73433L10.6903 7.8241C10.7551 7.44566 10.6297 7.05972 10.3548 6.79191L9.69356 6.14738L10.6073 6.01457ZM5.75848 12.0261C5.48348 12.294 5.35809 12.68 5.42293 13.0586L5.57903 13.9686L4.76168 13.5389C4.59176 13.4495 4.40543 13.4049 4.21903 13.4049C4.03262 13.4049 3.84621 13.4496 3.67629 13.5389L2.85903 13.9686L3.0152 13.0584C3.08004 12.68 2.95457 12.294 2.67973 12.0262L2.01848 11.3817L2.93231 11.2489C3.31231 11.1936 3.64059 10.955 3.81043 10.6109L4.2191 9.78285L4.6277 10.6107C4.79754 10.955 5.12582 11.1936 5.5059 11.2489L6.41973 11.3817L5.75848 12.0261ZM7.22082 14.2975L6.99825 12.9997L7.6566 12.358V14.2975H7.22082V14.2975ZM13.5073 38.4375H8.4377H1.80567C1.65262 38.1648 1.57051 37.8551 1.57051 37.5391C1.57051 36.5267 2.3941 35.7032 3.40637 35.7032C3.71973 35.7032 4.02926 35.7839 4.30145 35.9364C4.50488 36.0503 4.74856 36.0675 4.96606 35.9832C5.18348 35.8988 5.35184 35.7217 5.42504 35.5002C5.83324 34.2665 6.98074 33.4377 8.28035 33.4377C9.47481 33.4377 10.5565 34.1453 11.0362 35.2404C11.1675 35.54 11.4718 35.7266 11.7982 35.7068C11.834 35.7047 11.8701 35.7032 11.9064 35.7032C12.9188 35.7032 13.7423 36.5268 13.7423 37.5391C13.7425 37.8551 13.6604 38.1648 13.5073 38.4375ZM22.3948 38.4375H18.8978L20.4059 36.9294C20.711 36.6243 20.711 36.1296 20.4059 35.8245C20.1008 35.5195 19.6061 35.5195 19.301 35.8245L17.7074 37.4181V35.3103C17.7116 35.3062 17.7162 35.3027 17.7204 35.2985L21.6125 31.4064H22.3948V38.4375ZM17.7074 33.1019V31.4065H19.4028L17.7074 33.1019ZM38.437 38.4375H34.7514V36.4692C36.2062 36.2799 37.4982 35.57 38.437 34.5333V38.4375ZM34.7514 34.8892V29.9221C34.7514 29.4907 34.4017 29.1409 33.9702 29.1409C33.5387 29.1409 33.1889 29.4907 33.1889 29.9221V34.8892C31.0974 34.5185 29.5034 32.6886 29.5034 30.4922C29.5034 29.2432 30.0321 28.0426 30.9537 27.1981C31.11 27.0548 31.2014 26.8542 31.2069 26.6421C31.2457 25.1321 32.4596 23.9493 33.9702 23.9493C35.4808 23.9493 36.6946 25.1322 36.7335 26.6421C36.7389 26.8542 36.8304 27.0548 36.9867 27.1981C37.9083 28.0426 38.437 29.2432 38.437 30.4922C38.437 32.6886 36.8431 34.5185 34.7514 34.8892ZM38.437 26.445C38.3837 26.3861 38.3301 26.3275 38.2743 26.2707C38.172 25.264 37.7239 24.3322 36.9925 23.6178C36.1798 22.8241 35.1064 22.3869 33.9702 22.3869C32.8339 22.3869 31.7606 22.8241 30.9478 23.6178C30.2164 24.3321 29.7683 25.2642 29.666 26.2707C29.6103 26.3275 29.5566 26.3861 29.5033 26.445V22.3442C29.5033 21.9128 29.1536 21.563 28.7221 21.563H24.9722C24.5407 21.563 24.1909 21.9128 24.1909 22.3442V26.7192C24.1909 27.1506 24.5407 27.5004 24.9722 27.5004H28.7221C28.7279 27.5004 28.7336 27.4996 28.7393 27.4996C28.2229 28.4032 27.9408 29.4346 27.9408 30.4924C27.9408 33.552 30.2322 36.0848 33.1888 36.4692V38.4375H23.9573V30.6252C23.9573 30.1938 23.6075 29.8439 23.1761 29.8439H16.9262C16.4947 29.8439 16.145 30.1938 16.145 30.6252V38.4375H15.1832C15.2631 38.1466 15.3049 37.8445 15.3049 37.5391C15.3049 35.7764 13.9559 34.3228 12.2361 34.1566C11.5832 33.0282 10.4814 32.2378 9.21895 31.9729V10.6257H30.781V20.0005C30.781 20.4319 31.1307 20.7818 31.5622 20.7818C31.9937 20.7818 32.3435 20.4319 32.3435 20.0005V15.86H38.4371V26.445H38.437ZM27.941 23.1254V25.9378H25.7536V23.1254H27.941Z" fill="#E3CEA3"/>
</g>
<defs>
<clipPath id="clip0">
<rect width="40" height="40" fill="white"/>
</clipPath>
</defs>
</svg>
