<svg width="114" height="23" viewBox="0 0 114 23" fill="none" xmlns="http://www.w3.org/2000/svg">
<path d="M11.8438 0.589285C11.4821 0.535714 10.2366 0.42857 8.79018 0.42857C5.76339 0.42857 3.6875 2.27678 3.6875 5.66518V8.58482H0.272321V12.5491H3.6875V22.7143H7.78571V12.5491H11.1875L11.7098 8.58482H7.78571V6.05357C7.78571 4.91518 8.09375 4.125 9.74107 4.125H11.8438V0.589285ZM63.4074 5.89286C62.6306 6.22768 61.7868 6.46875 60.9163 6.5625C61.8136 6.02678 62.4967 5.18303 62.8181 4.17857C61.9877 4.67411 61.0502 5.03571 60.0725 5.22321C59.2824 4.37946 58.1574 3.85714 56.9118 3.85714C54.5145 3.85714 52.5859 5.79911 52.5859 8.18303C52.5859 8.51786 52.6261 8.85268 52.6931 9.17411C49.1038 8.98661 45.9029 7.27232 43.7734 4.64732C43.3984 5.29018 43.1842 6.02678 43.1842 6.83036C43.1842 8.33036 43.9475 9.65625 45.1127 10.433C44.4029 10.4062 43.7333 10.2054 43.1574 9.88393C43.1574 9.89732 43.1574 9.92411 43.1574 9.9375C43.1574 12.0402 44.644 13.7812 46.6261 14.183C46.2645 14.2768 45.8761 14.3304 45.4877 14.3304C45.2065 14.3304 44.9386 14.3036 44.6708 14.2634C45.2199 15.9777 46.8136 17.2232 48.7154 17.2634C47.2288 18.4286 45.3672 19.1116 43.3449 19.1116C42.9833 19.1116 42.6484 19.0982 42.3002 19.058C44.2154 20.2902 46.4922 21 48.9431 21C56.8984 21 61.2511 14.4107 61.2511 8.69196C61.2511 8.50446 61.2511 8.31696 61.2377 8.12946C62.0815 7.51339 62.8181 6.75 63.4074 5.89286ZM106.714 12.4286C106.714 14.317 105.174 15.8571 103.286 15.8571C101.397 15.8571 99.8571 14.317 99.8571 12.4286C99.8571 10.5402 101.397 9 103.286 9C105.174 9 106.714 10.5402 106.714 12.4286ZM108.562 12.4286C108.562 9.50893 106.205 7.15178 103.286 7.15178C100.366 7.15178 98.0089 9.50893 98.0089 12.4286C98.0089 15.3482 100.366 17.7054 103.286 17.7054C106.205 17.7054 108.562 15.3482 108.562 12.4286ZM110.009 6.9375C110.009 6.25446 109.46 5.70536 108.777 5.70536C108.094 5.70536 107.545 6.25446 107.545 6.9375C107.545 7.62053 108.094 8.16964 108.777 8.16964C109.46 8.16964 110.009 7.62053 110.009 6.9375ZM103.286 3.99107C104.786 3.99107 108 3.87053 109.353 4.40625C109.821 4.59375 110.17 4.82143 110.531 5.18303C110.893 5.54464 111.121 5.89286 111.308 6.36161C111.844 7.71428 111.723 10.9286 111.723 12.4286C111.723 13.9286 111.844 17.1429 111.308 18.4955C111.121 18.9643 110.893 19.3125 110.531 19.6741C110.17 20.0357 109.821 20.2634 109.353 20.4509C108 20.9866 104.786 20.8661 103.286 20.8661C101.786 20.8661 98.5714 20.9866 97.2188 20.4509C96.75 20.2634 96.4018 20.0357 96.0402 19.6741C95.6786 19.3125 95.4509 18.9643 95.2634 18.4955C94.7277 17.1429 94.8482 13.9286 94.8482 12.4286C94.8482 10.9286 94.7277 7.71428 95.2634 6.36161C95.4509 5.89286 95.6786 5.54464 96.0402 5.18303C96.4018 4.82143 96.75 4.59375 97.2188 4.40625C98.5714 3.87053 101.786 3.99107 103.286 3.99107ZM113.571 12.4286C113.571 11.0089 113.585 9.60268 113.504 8.18303C113.424 6.53571 113.049 5.07589 111.844 3.87053C110.638 2.66518 109.179 2.29018 107.531 2.20982C106.112 2.12946 104.705 2.14286 103.286 2.14286C101.866 2.14286 100.46 2.12946 99.0402 2.20982C97.3929 2.29018 95.933 2.66518 94.7277 3.87053C93.5223 5.07589 93.1473 6.53571 93.067 8.18303C92.9866 9.60268 93 11.0089 93 12.4286C93 13.8482 92.9866 15.2545 93.067 16.6741C93.1473 18.3214 93.5223 19.7812 94.7277 20.9866C95.933 22.192 97.3929 22.567 99.0402 22.6473C100.46 22.7277 101.866 22.7143 103.286 22.7143C104.705 22.7143 106.112 22.7277 107.531 22.6473C109.179 22.567 110.638 22.192 111.844 20.9866C113.049 19.7812 113.424 18.3214 113.504 16.6741C113.585 15.2545 113.571 13.8482 113.571 12.4286Z" fill="#2D2D2D"/>
</svg>
