<svg width="18" height="18" viewBox="0 0 18 18" fill="none" xmlns="http://www.w3.org/2000/svg">
<path d="M13.9339 11.0276C13.586 10.6659 13.1663 10.4725 12.7215 10.4725C12.2803 10.4725 11.857 10.6623 11.4948 11.0241L10.3613 12.1523C10.268 12.1022 10.1748 12.0556 10.0851 12.009C9.95596 11.9446 9.834 11.8837 9.72998 11.8192C8.66824 11.1458 7.70334 10.2683 6.7779 9.13288C6.32953 8.56697 6.02823 8.09059 5.80942 7.60706C6.10355 7.33842 6.37616 7.05905 6.6416 6.79042C6.74204 6.69013 6.84247 6.58626 6.9429 6.48597C7.69617 5.7338 7.69617 4.75956 6.9429 4.00739L5.96366 3.02957C5.85247 2.91854 5.73768 2.80392 5.63007 2.68931C5.41486 2.46724 5.18888 2.23801 4.95573 2.0231C4.60779 1.67925 4.1917 1.49658 3.75409 1.49658C3.31648 1.49658 2.89322 1.67925 2.53452 2.0231C2.53094 2.02668 2.53094 2.02668 2.52735 2.03026L1.30778 3.25881C0.848648 3.71727 0.5868 4.27602 0.529408 4.92432C0.443321 5.97019 0.7518 6.94443 0.98854 7.58198C1.56963 9.14721 2.43767 10.5978 3.73257 12.1523C5.30366 14.0256 7.19399 15.5048 9.35335 16.5471C10.1783 16.9375 11.2795 17.3996 12.5099 17.4784C12.5852 17.482 12.6641 17.4855 12.7359 17.4855C13.5644 17.4855 14.2603 17.1883 14.8055 16.5973C14.8091 16.5901 14.8163 16.5865 14.8199 16.5794C15.0064 16.3537 15.2216 16.1495 15.4476 15.9311C15.6018 15.7842 15.7597 15.6302 15.9139 15.469C16.269 15.1001 16.4555 14.6703 16.4555 14.2297C16.4555 13.7856 16.2654 13.3594 15.9031 13.0012L13.9339 11.0276ZM15.218 14.7992C15.2145 14.7992 15.2145 14.8028 15.218 14.7992C15.0781 14.9497 14.9347 15.0858 14.7804 15.2362C14.5473 15.4583 14.3105 15.6911 14.0881 15.9525C13.7259 16.3394 13.299 16.522 12.7394 16.522C12.6856 16.522 12.6282 16.522 12.5744 16.5185C11.5091 16.4504 10.5191 16.0349 9.77661 15.6803C7.74639 14.6989 5.96366 13.3056 4.48225 11.5398C3.25909 10.0677 2.44126 8.70666 1.89963 7.2453C1.56604 6.35344 1.44408 5.65858 1.49789 5.00312C1.53376 4.58406 1.69517 4.23662 1.99289 3.93934L3.21605 2.71796C3.39181 2.5532 3.57833 2.46366 3.76127 2.46366C3.98724 2.46366 4.17018 2.59976 4.28496 2.71438C4.28855 2.71796 4.29214 2.72154 4.29572 2.72512C4.51453 2.92928 4.72257 3.14061 4.94138 3.36626C5.05257 3.48087 5.16736 3.59549 5.28214 3.71369L6.26138 4.69151C6.6416 5.07117 6.6416 5.42219 6.26138 5.80185C6.15736 5.90572 6.05692 6.00959 5.9529 6.10988C5.6516 6.41791 5.36464 6.70445 5.05257 6.98383C5.0454 6.99099 5.03823 6.99458 5.03464 7.00174C4.72616 7.30977 4.78355 7.61064 4.84812 7.8148C4.8517 7.82554 4.85529 7.83629 4.85888 7.84703C5.11355 8.4631 5.47225 9.04334 6.01747 9.73462L6.02105 9.7382C7.01106 10.956 8.05487 11.9052 9.20628 12.6323C9.35335 12.7254 9.504 12.8006 9.64748 12.8722C9.77661 12.9367 9.89857 12.9976 10.0026 13.0621C10.0169 13.0692 10.0313 13.08 10.0456 13.0871C10.1676 13.148 10.2824 13.1767 10.4007 13.1767C10.6985 13.1767 10.885 12.9904 10.946 12.9295L12.1727 11.7046C12.2947 11.5828 12.4884 11.436 12.7143 11.436C12.9367 11.436 13.1197 11.5756 13.2309 11.6974C13.2344 11.701 13.2344 11.701 13.238 11.7046L15.2145 13.6781C15.5839 14.0435 15.5839 14.4196 15.218 14.7992Z" fill="white"/>
<path d="M9.68668 4.55151C10.6265 4.7091 11.4802 5.15324 12.1617 5.83377C12.8432 6.51431 13.2844 7.36677 13.4458 8.30518C13.4853 8.54158 13.6897 8.70634 13.9229 8.70634C13.9516 8.70634 13.9767 8.70276 14.0054 8.69918C14.2708 8.6562 14.4466 8.40547 14.4035 8.14042C14.2098 7.00501 13.6718 5.96988 12.8504 5.14966C12.029 4.32944 10.9923 3.79217 9.85527 3.59876C9.58983 3.55578 9.34233 3.73128 9.2957 3.99275C9.24907 4.25422 9.42124 4.50852 9.68668 4.55151Z" fill="white"/>
<path d="M17.4778 8.00073C17.1586 6.13105 16.2762 4.42972 14.9203 3.07581C13.5644 1.72191 11.8606 0.840796 9.98824 0.52202C9.72639 0.475457 9.47889 0.654545 9.43226 0.916013C9.38922 1.18106 9.56498 1.4282 9.83041 1.47477C11.5019 1.75773 13.0264 2.54929 14.2388 3.75635C15.4512 4.96698 16.2403 6.48922 16.5237 8.15832C16.5632 8.39472 16.7676 8.55948 17.0008 8.55948C17.0295 8.55948 17.0546 8.5559 17.0833 8.55232C17.3451 8.51292 17.5245 8.26219 17.4778 8.00073Z" fill="white"/>
</svg>
